<svg width="100" height="100" viewBox="0 0 24 24" fill="none" xmlns="http://www.w3.org/2000/svg">
  <path d="M16 21V19C16 17.9391 15.5786 16.9217 14.8284 16.1716C14.0783 15.4214 13.0609 15 12 15H8C6.93913 15 5.92172 15.4214 5.17157 16.1716C4.42143 16.9217 4 17.9391 4 19V21" stroke="#000" stroke-width="2" stroke-linecap="round" stroke-linejoin="round"/>
  <path d="M8 11C9.10457 11 10 10.1046 10 9C10 7.89543 9.10457 7 8 7C6.89543 7 6 7.89543 6 9C6 10.1046 6.89543 11 8 11Z" stroke="#000" stroke-width="2" stroke-linecap="round" stroke-linejoin="round"/>
  <path d="M20 21V19C20 17.9391 19.5786 16.9217 18.8284 16.1716C18.0783 15.4214 17.0609 15 16 15H15" stroke="#000" stroke-width="2" stroke-linecap="round" stroke-linejoin="round"/>
  <path d="M16 11C17.1046 11 18 10.1046 18 9C18 7.89543 17.1046 7 16 7C14.8954 7 14 7.89543 14 9C14 10.1046 14.8954 11 16 11Z" stroke="#000" stroke-width="2" stroke-linecap="round" stroke-linejoin="round"/>
</svg>
